<?xml version="1.0" encoding="utf-8"?>
<!-- Generator: Adobe Illustrator 24.0.1, SVG Export Plug-In . SVG Version: 6.00 Build 0)  -->
<svg version="1.1" id="Layer_1" xmlns="http://www.w3.org/2000/svg" xmlns:xlink="http://www.w3.org/1999/xlink" x="0px" y="0px"
	 viewBox="0 0 191.9 66.2" style="enable-background:new 0 0 191.9 66.2;" xml:space="preserve">
<style type="text/css">
	.st0{fill:#FDB615;}
	.st1{fill:#FFFFFF;}
</style>
<g>
	<path class="st0" d="M78.5,59.2l2.6,0.3l4.5-2.8l-0.9-5.9l-1.3-0.3c0,0-2.1,3-4.2,3.9s-2,3.1-2,3.1L78.5,59.2z"/>
	<g>
		<path class="st1" d="M99.8,39.1c1.6,0.4,3.2,1,4.5,1.9l-1.8,12.6c-0.1,0.5-0.1,0.8-0.1,0.9c0,0.4,0.1,0.7,0.2,1
			c0.1,0.2,0.4,0.4,0.7,0.5l-2.2,5c-1.3-0.1-2.5-0.4-3.5-1c-1-0.6-1.7-1.4-2.1-2.5C94,60,92,61.2,89.4,61.2c-2.3,0-4-0.8-5.2-2.3
			c-1.2-1.5-1.8-3.6-1.8-6.3c0-2.3,0.4-4.5,1.3-6.6c0.9-2.1,2.2-3.9,4.1-5.4c1.9-1.4,4.3-2.1,7.2-2.1C96.5,38.5,98.1,38.7,99.8,39.1
			z M91.3,46.6c-0.7,1.8-1.1,3.8-1.1,6c0,1.2,0.2,2,0.5,2.4c0.3,0.4,0.7,0.6,1.2,0.6c1.1,0,2.1-0.8,3-2.4l1.3-9.1
			c-0.6-0.2-1.1-0.2-1.7-0.2C93.1,43.9,92,44.8,91.3,46.6z"/>
		<path class="st1" d="M123.5,60.4h-6.7l0.1-2.7c-0.9,1.1-1.9,1.9-3,2.5c-1.1,0.6-2.3,0.9-3.5,0.9c-1.7,0-3-0.5-3.8-1.4
			c-0.8-0.9-1.2-2.2-1.2-3.8c0-0.5,0-1,0.1-1.6l2.1-15.2h7.7L113.3,53l-0.1,0.8c0,0.5,0.1,0.8,0.2,1c0.2,0.2,0.4,0.3,0.7,0.3
			c0.4,0,0.8-0.2,1.3-0.7c0.5-0.4,0.9-1.1,1.4-1.8l1.9-13.2h7.7L123.5,60.4z"/>
		<path class="st1" d="M139.4,54.5l1.9,5c-0.9,0.5-1.9,0.9-3.1,1.2c-1.2,0.3-2.3,0.4-3.3,0.4c-4.4,0-6.6-2.2-6.6-6.5
			c0-0.8,0.1-1.5,0.2-2.1l1.1-8h-2.5l0.7-5.3h2.8l1.3-4.5l6.8-0.8l-0.8,5.3h4.7l-1.5,5.3h-3.9l-1.1,8c-0.1,0.5-0.1,0.8-0.1,0.9
			c0,0.6,0.1,0.9,0.3,1.2c0.2,0.2,0.5,0.4,0.9,0.4C138.1,55.1,138.8,54.9,139.4,54.5z"/>
		<path class="st1" d="M161.2,40.9c1.6,1.6,2.5,3.8,2.5,6.6c0,2.3-0.4,4.5-1.2,6.5c-0.8,2.1-2.1,3.8-4,5.1c-1.8,1.3-4.2,2-7.1,2
			c-2.9,0-5.2-0.8-6.8-2.4c-1.6-1.6-2.5-3.9-2.5-6.7c0-2.3,0.4-4.5,1.2-6.5c0.8-2.1,2.1-3.7,4-5.1c1.8-1.3,4.2-2,7.1-2
			C157.2,38.5,159.5,39.3,161.2,40.9z M150.7,46.8c-0.5,1.8-0.8,3.7-0.8,5.7c0,1.1,0.2,1.9,0.5,2.4c0.3,0.5,0.9,0.7,1.6,0.7
			c1.5,0,2.5-0.9,3-2.7c0.5-1.8,0.8-3.8,0.8-5.8c0-1-0.2-1.8-0.5-2.2c-0.3-0.5-0.9-0.7-1.6-0.7C152.2,44.1,151.2,45,150.7,46.8z"/>
	</g>
	<g>
		<path class="st0" d="M22.1,60.4h-7.7l2.9-21.1H25L22.1,60.4z M25.5,28.7c0.7,0.7,1,1.6,1,2.7c0,1.3-0.5,2.4-1.4,3.3
			c-0.9,0.9-2.1,1.4-3.5,1.4c-1.2,0-2.1-0.3-2.8-1c-0.7-0.7-1-1.6-1-2.7c0-1.3,0.5-2.4,1.4-3.3c0.9-0.9,2.1-1.4,3.5-1.4
			C23.9,27.6,24.8,28,25.5,28.7z"/>
		<path class="st0" d="M45.4,39.8c0.8,0.9,1.2,2.1,1.2,3.7c0,0.6,0,1.1-0.1,1.4l-2.2,15.5h-7.7l1.9-13.5c0.1-0.5,0.1-0.8,0.1-0.9
			c0-0.8-0.2-1.1-0.7-1.1c-0.5,0-1,0.4-1.5,1.1s-1.2,1.9-1.9,3.4l-1.6,11h-7.7l2.9-21.1h6.7l0,3.5c0.8-1.3,1.9-2.3,3.2-3.1
			c1.3-0.8,2.6-1.2,3.9-1.2C43.5,38.5,44.6,39,45.4,39.8z"/>
		<path class="st0" d="M62.7,39.3c1.4,0.5,2.7,1.2,3.7,2l-3.3,4.1c-0.7-0.4-1.5-0.8-2.4-1.1c-0.9-0.3-1.7-0.4-2.4-0.4
			c-1.3,0-2,0.4-2,1.1c0,0.3,0.1,0.5,0.3,0.6c0.2,0.2,0.6,0.4,1.2,0.6c0.6,0.3,1.5,0.5,2.5,0.9c3.5,1.2,5.2,3.3,5.2,6.4
			c0,1.3-0.3,2.5-0.9,3.7c-0.6,1.1-1.6,2.1-3.1,2.9c-1.5,0.8-3.4,1.1-5.9,1.1c-1.9,0-3.7-0.3-5.3-1c-1.7-0.7-3-1.6-4-2.7l3.7-3.9
			c1.7,1.5,3.5,2.2,5.6,2.2c1.6,0,2.3-0.4,2.3-1.3c0-0.3-0.1-0.6-0.3-0.8c-0.2-0.2-0.5-0.4-1-0.6c-0.5-0.2-1.4-0.5-2.7-1
			c-1.8-0.6-3.1-1.5-3.9-2.5c-0.9-1-1.3-2.3-1.3-3.9c0-1.4,0.4-2.6,1.1-3.7c0.8-1.1,1.8-2,3.3-2.6c1.4-0.6,3.1-0.9,5.1-0.9
			C59.8,38.5,61.3,38.8,62.7,39.3z"/>
		<path class="st0" d="M79.2,54.5l1.9,5c-0.9,0.5-1.9,0.9-3.1,1.2c-1.2,0.3-2.3,0.4-3.3,0.4c-4.4,0-6.6-2.2-6.6-6.5
			c0-0.8,0.1-1.5,0.2-2.1l1.1-8h-2.5l0.7-5.3h2.8l1.3-4.5l6.8-0.8l-0.8,5.3h4.7L81,44.6h-3.9l-1.1,8c-0.1,0.5-0.1,0.8-0.1,0.9
			c0,0.6,0.1,0.9,0.3,1.2c0.2,0.2,0.5,0.4,0.9,0.4C77.8,55.1,78.5,54.9,79.2,54.5z"/>
	</g>
	<path class="st0" d="M79.2,54.5l1.9,5c-1.9,1.1-4.5,1.7-6.4,1.7c-5.2,0-7.2-3-6.4-8.6l1.1-8h-2.5l0.7-5.3h2.8l1.3-4.5l6.8-0.8
		l-0.8,5.3h4.7L81,44.6h-3.9l-1.1,8c-0.3,2,0.2,2.5,1.1,2.5C77.8,55.1,78.5,54.9,79.2,54.5z"/>
	<g>
		<path class="st1" d="M83.8,36.8c2.3-2.5,5.6-4.1,9.3-4.1c3.7,0,7,1.6,9.3,4.1h4.5c-2.9-4.6-8-7.7-13.8-7.7
			c-4.8,0-9.2,2.1-12.1,5.5l-0.3,2.2H83.8z"/>
		<path class="st1" d="M175.7,36.3v-5.4c0-6.8-12.4-10.6-24.3-10.8C141.1,7.7,125,2.8,103.6,5.8c0,0,0,0-0.1,0
			c-11.6,2-16.8,8.2-20.7,14.6l-10.1,3.4c-0.7,0.2-1.2,0.9-1.2,1.7v6.8l7.1-0.8c0.1-0.2,0.1-0.4,0.1-0.6c0-1-0.8-1.8-1.8-1.8h-1.8
			v-2.3l9.3-3.1h66.2c10.8,0,18.3,2.8,20.7,5.4h-0.9c-1,0-1.8,0.8-1.8,1.8s0.8,1.8,1.8,1.8h1.8v5.4c0,1,0.8,1.8,1.8,1.8v3.6h-3.7
			c-0.9-8.1-7.8-14.4-16.1-14.4c-5.8,0-10.9,3.1-13.8,7.7h4.5c2.3-2.5,5.6-4.1,9.3-4.1c6.9,0,12.6,5.6,12.6,12.6
			c0,1,0.8,1.8,1.8,1.8h7.2c1,0,1.8-0.8,1.8-1.8v-7.2C177.5,37.1,176.7,36.3,175.7,36.3z M87.3,20.2c2-3,4.3-5.5,7.5-7.4l0.1,7.4
			H87.3z M116.4,20.2h-18L98.3,11c1.7-0.7,3.6-1.2,5.8-1.6c4.4-0.6,8.5-0.9,12.3-0.8V20.2z M120,20.2V8.7
			c11.1,0.8,19.9,4.6,26.5,11.5H120z"/>
	</g>
	<path class="st0" d="M68.7,36.8l0.7-2.6H41.7c-0.7,0-1.3,0.4-1.6,1.1l0,0c-0.2,0.4-0.4,0.8-0.6,1.3l-0.1,0.2H68.7z"/>
	<path class="st0" d="M16.2,24.8c0.3,0.2,0.6,0.3,0.9,0.3h10.5l2.9,5.9l-2.9,5.9h3.8l2.6-5.1c0.2-0.5,0.2-1.1,0-1.5l-3.8-7.6
		c-0.3-0.6-0.9-1-1.5-1h-7.8c2.1-1.8,4.8-2.8,7.7-2.9c3.2,0,6.3,1.2,8.6,3.4c1.2,1.2,2.2,2.7,2.9,4.3c0.3,0.7,0.9,1.1,1.6,1.1h28.5
		v-3.4H42.8c-1.7-3.7-4.8-6.4-8.6-7.9c-3.9-1.5-8.1-1.3-11.9,0.4c-2.7,1.2-5,3.2-6.6,5.7c-0.3,0.4-0.3,0.8-0.2,1.3
		C15.6,24.1,15.8,24.5,16.2,24.8z"/>
</g>
</svg>
