<svg width="140" height="40" viewBox="0 0 140 40" fill="none" xmlns="http://www.w3.org/2000/svg">
  <rect x="2" y="8" width="24" height="24" rx="6" fill="#0047CC"/>
  <path d="M11 21V19H17V21H11Z" fill="white"/>
  <path d="M9 17V15H13V17H9Z" fill="white"/>
  <path d="M15 17V15H19V17H15Z" fill="white"/>
  <path d="M9 25V23H13V25H9Z" fill="white"/>
  <path d="M15 25V23H19V25H15Z" fill="white"/>
  <path d="M36.576 28V12.4H40.272V28H36.576ZM47.0054 28.288C45.8054 28.288 44.7181 28.0213 43.7434 27.488C42.7688 26.9547 42.0054 26.224 41.4534 25.296C40.9014 24.3573 40.6254 23.296 40.6254 22.112C40.6254 20.928 40.9014 19.872 41.4534 18.944C42.0054 18.0053 42.7688 17.2747 43.7434 16.752C44.7181 16.2187 45.8054 15.952 47.0054 15.952C48.2054 15.952 49.2928 16.2187 50.2674 16.752C51.2421 17.2747 52.0054 18.0053 52.5574 18.944C53.1094 19.872 53.3854 20.928 53.3854 22.112C53.3854 23.296 53.1094 24.3573 52.5574 25.296C52.0054 26.224 51.2421 26.9547 50.2674 27.488C49.2928 28.0213 48.2054 28.288 47.0054 28.288ZM47.0054 25.184C47.5788 25.184 48.0854 25.0293 48.5254 24.72C48.9654 24.4 49.3094 23.968 49.5574 23.424C49.8161 22.88 49.9454 22.24 49.9454 21.504C49.9454 20.7787 49.8161 20.1493 49.5574 19.616C49.3094 19.072 48.9654 18.6453 48.5254 18.336C48.0854 18.016 47.5788 17.856 47.0054 17.856C46.4321 17.856 45.9254 18.016 45.4854 18.336C45.0454 18.6453 44.6961 19.072 44.4374 19.616C44.1894 20.1493 44.0654 20.7787 44.0654 21.504C44.0654 22.24 44.1894 22.88 44.4374 23.424C44.6961 23.968 45.0454 24.4 45.4854 24.72C45.9254 25.0293 46.4321 25.184 47.0054 25.184ZM55.5209 28V11.2H58.8969V28H55.5209ZM65.3823 28.288C64.439 28.288 63.5863 28.112 62.8243 27.76C62.0623 27.408 61.4569 26.9333 61.0083 26.336C60.5596 25.728 60.3143 25.04 60.2723 24.272H63.6323C63.6956 24.7627 63.9116 25.1653 64.2803 25.488C64.6596 25.8107 65.1243 25.972 65.6743 25.972C66.1763 25.972 66.567 25.8587 66.8463 25.632C67.1256 25.3947 67.2653 25.088 67.2653 24.712C67.2653 24.4 67.1603 24.1467 66.9503 23.952C66.7403 23.7573 66.471 23.6 66.1423 23.48C65.8243 23.36 65.3916 23.224 64.8443 23.072C64.0503 22.8613 63.3916 22.6507 62.8683 22.44C62.3449 22.2293 61.8909 21.9067 61.5063 21.472C61.1216 21.0373 60.9293 20.4533 60.9293 19.72C60.9293 18.696 61.3243 17.8907 62.1143 17.304C62.9043 16.7067 63.9496 16.408 65.2503 16.408C66.583 16.408 67.6443 16.7067 68.4343 17.304C69.2243 17.8907 69.6669 18.7013 69.7623 19.736H66.4343C66.3816 19.288 66.1923 18.9387 65.8663 18.688C65.5403 18.4267 65.1176 18.296 64.5983 18.296C64.1496 18.296 63.795 18.3973 63.5343 18.6C63.2843 18.8027 63.1593 19.0827 63.1593 19.432C63.1593 19.7973 63.3543 20.08 63.7443 20.28C64.1343 20.48 64.727 20.6907 65.5223 20.912C66.3163 21.144 66.9703 21.3653 67.4843 21.576C67.9983 21.7867 68.4449 22.104 68.8243 22.528C69.2036 22.952 69.3983 23.5147 69.4083 24.216C69.4083 24.952 69.2136 25.6133 68.8243 26.2C68.4349 26.776 67.8776 27.2347 67.1523 27.576C66.4269 28.0507 65.5676 28.288 64.5663 28.288H65.3823ZM75.6846 28.288C74.2766 28.288 73.134 27.9013 72.2566 27.128C71.3793 26.3547 70.94 25.232 70.94 23.76V16.696H74.316V23.552C74.316 24.256 74.5046 24.8027 74.882 25.192C75.27 25.5813 75.7826 25.776 76.42 25.776C77.0573 25.776 77.5646 25.5813 77.942 25.192C78.3193 24.8027 78.508 24.256 78.508 23.552V16.696H81.884V23.76C81.884 25.232 81.4446 26.3547 80.566 27.128C79.6873 27.9013 78.5446 28.288 77.13 28.288H75.6846ZM87.5983 28V19.368H84.2383V16.696H94.2863V19.368H90.9423V28H87.5983ZM99.8437 28.288C98.6437 28.288 97.5564 28.0213 96.5817 27.488C95.6071 26.9547 94.8437 26.224 94.2917 25.296C93.7397 24.3573 93.4637 23.296 93.4637 22.112C93.4637 20.928 93.7397 19.872 94.2917 18.944C94.8437 18.0053 95.6071 17.2747 96.5817 16.752C97.5564 16.2187 98.6437 15.952 99.8437 15.952C101.044 15.952 102.131 16.2187 103.106 16.752C104.08 17.2747 104.844 18.0053 105.396 18.944C105.948 19.872 106.224 20.928 106.224 22.112C106.224 23.296 105.948 24.3573 105.396 25.296C104.844 26.224 104.08 26.9547 103.106 27.488C102.131 28.0213 101.044 28.288 99.8437 28.288ZM99.8437 25.184C100.417 25.184 100.924 25.0293 101.364 24.72C101.804 24.4 102.148 23.968 102.396 23.424C102.655 22.88 102.784 22.24 102.784 21.504C102.784 20.7787 102.655 20.1493 102.396 19.616C102.148 19.072 101.804 18.6453 101.364 18.336C100.924 18.016 100.417 17.856 99.8437 17.856C99.2704 17.856 98.7637 18.016 98.3237 18.336C97.8837 18.6453 97.5344 19.072 97.2757 19.616C97.0277 20.1493 96.9037 20.7787 96.9037 21.504C96.9037 22.24 97.0277 22.88 97.2757 23.424C97.5344 23.968 97.8837 24.4 98.3237 24.72C98.7637 25.0293 99.2704 25.184 99.8437 25.184Z" fill="#0047CC"/>
</svg> 